<?xml version="1.0" encoding="UTF-8" standalone="no"?>
<!DOCTYPE svg PUBLIC "-//W3C//DTD SVG 1.1//EN" "http://www.w3.org/Graphics/SVG/1.1/DTD/svg11.dtd">
<svg width="100%" height="100%" viewBox="0 0 1000 1000" version="1.1" xmlns="http://www.w3.org/2000/svg" xmlns:xlink="http://www.w3.org/1999/xlink" xml:space="preserve" xmlns:serif="http://www.serif.com/" style="fill-rule:evenodd;clip-rule:evenodd;stroke-linecap:round;stroke-linejoin:round;stroke-miterlimit:1.5;">
    <path d="M860.481,687.93C864.797,681.278 766.823,669.859 766.823,669.859C766.823,669.859 839.86,610.889 841.587,601.912C843.314,592.935 777.184,615.997 777.184,615.997C786.744,621.573 774.041,123.63 764.912,131.322C759.003,136.301 571.356,386.745 571.356,386.745C534.865,375.988 491.189,371.518 429.174,383.094C429.174,383.094 254.196,135.297 240.502,133.779C231.632,132.795 221.832,602.269 230.221,618.341C230.221,618.341 160.26,593.027 161.456,601.598C162.652,610.169 237.396,669.765 237.396,669.765C237.396,669.765 138.534,681.525 142.919,688.302C147.304,695.079 263.706,710.426 263.706,710.426C380.615,909.524 632.438,893.821 742.968,711.024C742.968,711.024 856.166,694.582 860.481,687.93Z" style="fill:rgb(21,21,21);stroke:black;stroke-width:1px;"/>
    <path d="M278.432,591.235C278.626,592.69 278.925,594.125 279.03,595.573C295.087,816.133 441.689,804.469 479.943,672.557L406.339,644.149C409.766,772.189 350.784,767.825 360.987,625.387L278.432,591.235Z" style="fill:rgb(70,176,0);stroke:black;stroke-width:1px;"/>
    <g transform="matrix(-1,0,0,1,1005.331615,0)">
        <path d="M278.432,591.235C278.626,592.69 278.925,594.125 279.03,595.573C295.087,816.133 441.689,804.469 479.943,672.557L406.339,644.149C409.766,772.189 350.784,767.825 360.987,625.387L278.432,591.235Z" style="fill:rgb(70,176,0);stroke:black;stroke-width:1px;"/>
    </g>
</svg>
